<svg width="12" height="16" viewBox="0 0 12 16" fill="none" xmlns="http://www.w3.org/2000/svg">
<path d="M10.5 2H8C8 0.90625 7.09375 0 6 0C4.875 0 4 0.90625 4 2H1.5C0.65625 2 0 2.6875 0 3.5V14.5C0 15.3438 0.65625 16 1.5 16H10.5C11.3125 16 12 15.3438 12 14.5V3.5C12 2.6875 11.3125 2 10.5 2ZM6 1.25C6.40625 1.25 6.75 1.59375 6.75 2C6.75 2.4375 6.40625 2.75 6 2.75C5.5625 2.75 5.25 2.4375 5.25 2C5.25 1.59375 5.5625 1.25 6 1.25ZM9.78125 8.5L5.3125 12.9375C5.15625 13.0938 4.90625 13.0938 4.78125 12.9375L2.1875 10.3438C2.03125 10.1875 2.0625 9.9375 2.1875 9.8125L3.09375 8.90625C3.21875 8.78125 3.46875 8.78125 3.625 8.9375L5.0625 10.375L8.375 7.09375C8.5 6.9375 8.75 6.9375 8.90625 7.09375L9.78125 7.96875C9.9375 8.125 9.90625 8.375 9.78125 8.5Z" fill="#1A6FEF"/>
</svg>
