<svg width="18" height="37" viewBox="0 0 18 37" fill="none" xmlns="http://www.w3.org/2000/svg">
<path d="M9 0.5C11.4609 0.5 13.5 2.53906 13.5 5C13.5 7.53125 11.4609 9.5 9 9.5C6.46875 9.5 4.5 7.53125 4.5 5C4.5 2.53906 6.46875 0.5 9 0.5ZM17.3672 25.4609C17.6484 26.5156 16.8047 27.5 15.75 27.5H11.8125V34.8125C11.8125 35.7969 11.0391 36.5 10.125 36.5H7.875C6.89062 36.5 6.1875 35.7969 6.1875 34.8125V27.5H2.25C1.125 27.5 0.28125 26.5156 0.5625 25.4609L3.9375 11.9609C4.14844 11.1875 4.78125 10.625 5.625 10.625H6.39844C8.08594 11.3984 9.91406 11.3984 11.5312 10.625H12.375C13.1484 10.625 13.7812 11.1875 13.9922 11.9609L17.3672 25.4609Z" fill="#1A6FEF"/>
</svg>
