<svg width="20" height="14" viewBox="0 0 20 14" fill="none" xmlns="http://www.w3.org/2000/svg">
<path d="M19 0H1C0.4375 0 0 0.46875 0 1V13C0 13.5625 0.4375 14 1 14H19C19.5312 14 20 13.5625 20 13V1C20 0.46875 19.5312 0 19 0ZM5.5 9.25V9.75C5.5 9.90625 5.375 10 5.25 10H4.75C4.59375 10 4.5 9.90625 4.5 9.75V9.25C4.125 9.25 3.78125 9.125 3.5 8.90625C3.375 8.8125 3.375 8.625 3.5 8.53125L3.84375 8.1875C3.9375 8.09375 4.0625 8.09375 4.15625 8.15625C4.28125 8.21875 4.4375 8.25 4.5625 8.25H5.4375C5.65625 8.25 5.8125 8.09375 5.8125 7.84375C5.8125 7.65625 5.71875 7.5 5.53125 7.46875L4.125 7.03125C3.5625 6.84375 3.15625 6.3125 3.15625 5.6875C3.15625 4.90625 3.75 4.28125 4.46875 4.28125V3.75C4.46875 3.625 4.59375 3.5 4.71875 3.5H5.21875C5.375 3.5 5.46875 3.625 5.46875 3.75V4.28125C5.84375 4.28125 6.1875 4.40625 6.46875 4.625C6.59375 4.71875 6.59375 4.90625 6.46875 5L6.125 5.34375C6.03125 5.4375 5.90625 5.4375 5.8125 5.375C5.6875 5.3125 5.53125 5.25 5.40625 5.25H4.53125C4.3125 5.25 4.15625 5.4375 4.15625 5.6875C4.15625 5.875 4.25 6.03125 4.4375 6.0625L5.84375 6.5C6.40625 6.65625 6.8125 7.21875 6.8125 7.84375C6.8125 8.625 6.21875 9.25 5.5 9.25ZM13 8.75C13 8.90625 12.875 9 12.75 9H9.25C9.09375 9 9 8.90625 9 8.75V8.25C9 8.125 9.09375 8 9.25 8H12.75C12.875 8 13 8.125 13 8.25V8.75ZM18 8.75C18 8.90625 17.875 9 17.75 9H15.25C15.0938 9 15 8.90625 15 8.75V8.25C15 8.125 15.0938 8 15.25 8H17.75C17.875 8 18 8.125 18 8.25V8.75ZM18 5.75C18 5.90625 17.875 6 17.75 6H9.25C9.09375 6 9 5.90625 9 5.75V5.25C9 5.125 9.09375 5 9.25 5H17.75C17.875 5 18 5.125 18 5.25V5.75Z" fill="#1A6FEF"/>
</svg>
