<svg width="11" height="9" viewBox="0 0 11 9" fill="none" xmlns="http://www.w3.org/2000/svg">
<path d="M5.6875 4.55664C5.91602 4.32812 5.91602 3.94727 5.6875 3.69336L2.23438 0.240234C1.98047 0.0117188 1.59961 0.0117188 1.37109 0.240234L0.787109 0.824219C0.558594 1.07812 0.558594 1.45898 0.787109 1.6875L3.25 4.15039L0.787109 6.58789C0.558594 6.81641 0.558594 7.19727 0.787109 7.45117L1.37109 8.00977C1.59961 8.26367 1.98047 8.26367 2.23438 8.00977L5.6875 4.55664ZM10.5625 3.69336L7.10938 0.240234C6.85547 0.0117188 6.47461 0.0117188 6.24609 0.240234L5.66211 0.824219C5.43359 1.05273 5.43359 1.45898 5.66211 1.6875L8.125 4.125L5.66211 6.58789C5.43359 6.81641 5.43359 7.19727 5.66211 7.45117L6.24609 8.00977C6.47461 8.26367 6.88086 8.26367 7.10938 8.00977L10.5625 4.55664C10.791 4.32812 10.791 3.94727 10.5625 3.69336Z" fill="#ADB5BD"/>
</svg>
