<svg width="24" height="19" viewBox="0 0 24 19" fill="none" xmlns="http://www.w3.org/2000/svg">
<path d="M19.5 18C21.9844 18 24 15.9844 24 13.5V4.5C24 2.01562 21.9844 0 19.5 0H15.5625C15.2344 0 15 0.28125 15 0.5625V2.4375C15 2.76562 15.2344 3 15.5625 3H19.5C20.2969 3 21 3.70312 21 4.5V13.5C21 14.3438 20.2969 15 19.5 15H15.5625C15.2344 15 15 15.2812 15 15.5625V17.4375C15 17.7656 15.2344 18 15.5625 18H19.5ZM17.2969 8.57812L9.42188 0.703125C8.71875 0 7.5 0.515625 7.5 1.5V6H1.125C0.46875 6 0 6.51562 0 7.125V11.625C0 12.2812 0.46875 12.75 1.125 12.75H7.5V17.25C7.5 18.2812 8.71875 18.75 9.42188 18.0469L17.2969 10.1719C17.7188 9.75 17.7188 9.04688 17.2969 8.57812Z" fill="white"/>
</svg>
