<svg width="53" height="49" viewBox="0 0 53 49" fill="none" xmlns="http://www.w3.org/2000/svg">
<rect width="53" height="49" fill="#E5E5E5"/>
<rect width="1440" height="1024" transform="translate(-583 -658)" fill="white"/>
<rect x="-381" y="-472" width="1080" height="653" rx="15" fill="#E2E7EE"/>
<rect x="-315" y="-471" width="442" height="652" fill="#1B1264"/>
<rect x="-246" y="-5" width="304" height="58" rx="10" fill="white"/>
<rect width="53" height="49" rx="10" fill="#1A6FEF"/>
<path d="M33.5 33C35.9844 33 38 30.9844 38 28.5V19.5C38 17.0156 35.9844 15 33.5 15H29.5625C29.2344 15 29 15.2812 29 15.5625V17.4375C29 17.7656 29.2344 18 29.5625 18H33.5C34.2969 18 35 18.7031 35 19.5V28.5C35 29.3438 34.2969 30 33.5 30H29.5625C29.2344 30 29 30.2812 29 30.5625V32.4375C29 32.7656 29.2344 33 29.5625 33H33.5ZM31.2969 23.5781L23.4219 15.7031C22.7188 15 21.5 15.5156 21.5 16.5V21H15.125C14.4688 21 14 21.5156 14 22.125V26.625C14 27.2812 14.4688 27.75 15.125 27.75H21.5V32.25C21.5 33.2812 22.7188 33.75 23.4219 33.0469L31.2969 25.1719C31.7188 24.75 31.7188 24.0469 31.2969 23.5781Z" fill="white"/>
</svg>
