<svg width="14" height="37" viewBox="0 0 14 37" fill="none" xmlns="http://www.w3.org/2000/svg">
<path d="M6.75 0.5C4.21875 0.5 2.25 2.53906 2.25 5C2.25 7.53125 4.21875 9.5 6.75 9.5C9.21094 9.5 11.25 7.53125 11.25 5C11.25 2.53906 9.21094 0.5 6.75 0.5ZM10.125 10.625H9.28125C7.66406 11.3984 5.83594 11.3984 4.14844 10.625H3.375C1.47656 10.625 0 12.1719 0 14V23.5625C0 24.5469 0.703125 25.25 1.6875 25.25H2.8125V34.8125C2.8125 35.7969 3.51562 36.5 4.5 36.5H9C9.91406 36.5 10.6875 35.7969 10.6875 34.8125V25.25H11.8125C12.7266 25.25 13.5 24.5469 13.5 23.5625V14C13.5 12.1719 11.9531 10.625 10.125 10.625Z" fill="#1A6FEF"/>
</svg>
