<svg width="21" height="17" viewBox="0 0 21 17" fill="none" xmlns="http://www.w3.org/2000/svg">
<path d="M17 6.96875C17.3125 7.03125 17.6562 7.03125 17.9688 6.96875L18.25 7.4375C18.3438 7.59375 18.5312 7.65625 18.7188 7.59375C19.0625 7.46875 19.4062 7.25 19.7188 7.03125C19.8438 6.90625 19.9062 6.6875 19.8125 6.53125L19.5312 6.09375C19.75 5.84375 19.9375 5.53125 20.0312 5.21875H20.5625C20.75 5.21875 20.9062 5.09375 20.9375 4.90625C21 4.5 21 4.125 20.9375 3.75C20.9062 3.5625 20.75 3.40625 20.5625 3.40625H20.0312C19.9375 3.09375 19.75 2.8125 19.5312 2.5625L19.8125 2.125C19.9062 1.9375 19.8438 1.75 19.7188 1.625C19.4062 1.375 19.0625 1.1875 18.7188 1.03125C18.5312 0.96875 18.3438 1.03125 18.25 1.21875L17.9688 1.65625C17.6562 1.59375 17.3125 1.59375 17 1.65625L16.7188 1.21875C16.625 1.03125 16.4375 0.96875 16.25 1.03125C15.9062 1.1875 15.5625 1.375 15.25 1.625C15.125 1.75 15.0625 1.9375 15.1562 2.125L15.4375 2.5625C15.2188 2.8125 15.0312 3.09375 14.9375 3.40625H14.4062C14.2188 3.40625 14.0625 3.5625 14.0312 3.75C13.9688 4.125 13.9688 4.53125 14.0312 4.90625C14.0625 5.09375 14.2188 5.21875 14.4062 5.21875H14.9375C15.0312 5.53125 15.2188 5.84375 15.4375 6.09375L15.1562 6.53125C15.0625 6.6875 15.125 6.90625 15.25 7.03125C15.5625 7.25 15.9062 7.46875 16.25 7.59375C16.4375 7.65625 16.625 7.59375 16.7188 7.4375L17 6.96875ZM16.6562 5.15625C15.75 3.9375 17.0938 2.5625 18.3125 3.5C19.25 4.6875 17.875 6.0625 16.6562 5.15625ZM13.0625 9.96875C13.1875 9.3125 13.1875 8.625 13.0625 7.96875L14.125 7.4375C14.4375 7.25 14.5625 6.875 14.4375 6.53125C14.1562 5.78125 13.625 5.09375 13.0938 4.46875C12.875 4.1875 12.4688 4.125 12.1562 4.3125L11.25 4.84375C10.75 4.40625 10.1562 4.0625 9.53125 3.84375V2.8125C9.53125 2.4375 9.28125 2.125 8.90625 2.0625C8.125 1.9375 7.3125 1.9375 6.53125 2.0625C6.1875 2.125 5.9375 2.4375 5.9375 2.8125V3.84375C5.28125 4.0625 4.71875 4.40625 4.21875 4.84375L3.3125 4.3125C2.96875 4.125 2.59375 4.21875 2.34375 4.46875C1.84375 5.09375 1.3125 5.78125 1.03125 6.53125C0.90625 6.875 1.03125 7.25 1.375 7.4375L2.40625 7.96875C2.28125 8.625 2.28125 9.3125 2.40625 9.96875L1.375 10.4688C1.03125 10.6562 0.90625 11.0625 1.03125 11.375C1.3125 12.1562 1.84375 12.8438 2.34375 13.4375C2.59375 13.7188 3 13.7812 3.3125 13.5938L4.21875 13.0938C4.71875 13.5 5.28125 13.8438 5.9375 14.0625V15.125C5.9375 15.5 6.1875 15.8125 6.5625 15.875C7.34375 16 8.15625 16 8.90625 15.875C9.28125 15.8125 9.53125 15.5 9.53125 15.125V14.0625C10.1562 13.8438 10.75 13.5 11.25 13.0938L12.1562 13.625C12.4688 13.7812 12.875 13.7188 13.0938 13.4375C13.625 12.8438 14.1562 12.1562 14.4375 11.375C14.5625 11.0312 14.4375 10.6562 14.125 10.4688L13.0625 9.96875ZM9.375 10.625C6.96875 12.4688 4.21875 9.71875 6.09375 7.3125C8.5 5.46875 11.2188 8.21875 9.375 10.625ZM17 16.3125C17.3125 16.375 17.6562 16.375 17.9688 16.3125L18.25 16.7812C18.3438 16.9375 18.5312 17 18.7188 16.9375C19.0625 16.8125 19.4062 16.5938 19.7188 16.3438C19.8438 16.25 19.9062 16.0312 19.8125 15.875L19.5312 15.4062C19.75 15.1562 19.9375 14.875 20.0312 14.5625H20.5625C20.75 14.5625 20.9062 14.4375 20.9375 14.25C21 13.8438 21 13.4688 20.9375 13.0938C20.9062 12.9062 20.75 12.75 20.5625 12.75H20.0312C19.9375 12.4375 19.75 12.1562 19.5312 11.9062L19.8125 11.4688C19.9062 11.2812 19.8438 11.0938 19.7188 10.9688C19.4062 10.7188 19.0625 10.5312 18.7188 10.375C18.5312 10.3125 18.3438 10.375 18.25 10.5625L17.9688 11C17.6562 10.9375 17.3125 10.9375 17 11L16.7188 10.5625C16.625 10.375 16.4375 10.3125 16.25 10.375C15.9062 10.5312 15.5625 10.7188 15.25 10.9688C15.125 11.0938 15.0625 11.2812 15.1562 11.4688L15.4375 11.9062C15.2188 12.1562 15.0312 12.4375 14.9375 12.75H14.4062C14.2188 12.75 14.0625 12.9062 14.0312 13.0938C13.9688 13.4688 13.9688 13.875 14.0312 14.25C14.0625 14.4375 14.2188 14.5625 14.4062 14.5625H14.9375C15.0312 14.875 15.2188 15.1562 15.4375 15.4062L15.1562 15.875C15.0625 16.0312 15.125 16.25 15.25 16.3438C15.5625 16.5938 15.9062 16.8125 16.25 16.9375C16.4375 17 16.625 16.9375 16.7188 16.7812L17 16.3125ZM16.6562 14.4688C15.75 13.2812 17.0938 11.9062 18.3125 12.8438C19.25 14.0312 17.875 15.4062 16.6562 14.4688Z" fill="#1A6FEF"/>
</svg>
