<svg width="16" height="16" viewBox="0 0 16 16" fill="none" xmlns="http://www.w3.org/2000/svg">
<path d="M10.9688 10.0312L8 13L5 10.0312C2.78125 10.125 1 11.9688 1 14.2188V14.5C1 15.3438 1.65625 16 2.5 16H13.5C14.3125 16 15 15.3438 15 14.5V14.2188C15 11.9688 13.1875 10.125 10.9688 10.0312ZM1.40625 2.5L1.625 2.5625V4.375C1.40625 4.5 1.25 4.75 1.25 5C1.25 5.28125 1.375 5.5 1.59375 5.625L1.09375 7.5625C1.03125 7.78125 1.15625 8 1.34375 8H2.625C2.8125 8 2.9375 7.78125 2.875 7.5625L2.375 5.625C2.59375 5.5 2.75 5.28125 2.75 5C2.75 4.75 2.59375 4.5 2.375 4.375V2.75L4.4375 3.21875C4.15625 3.78125 4 4.375 4 5C4 7.21875 5.78125 9 8 9C10.1875 9 12 7.21875 12 5C12 4.375 11.8125 3.78125 11.5625 3.21875L14.5625 2.5C15.125 2.375 15.125 1.65625 14.5625 1.53125L8.59375 0.09375C8.1875 0 7.78125 0 7.375 0.09375L1.40625 1.53125C0.84375 1.65625 0.84375 2.375 1.40625 2.5Z" fill="#1A6FEF"/>
</svg>
