<svg width="16" height="14" viewBox="0 0 16 14" fill="none" xmlns="http://www.w3.org/2000/svg">
<path d="M15.5 3C15.5 2.90625 15.4062 2.8125 15.3438 2.78125L8.09375 0.03125C8.0625 0.03125 8.03125 0.03125 7.96875 0.03125C7.9375 0.03125 7.90625 0.03125 7.875 0.03125L0.625 2.78125C0.5625 2.8125 0.5 2.90625 0.5 3V3.5C0.5 3.65625 0.59375 3.75 0.75 3.75H1.5V4.125C1.5 4.34375 1.65625 4.5 1.875 4.5H14.125C14.3125 4.5 14.5 4.34375 14.5 4.125V3.75H15.25C15.375 3.75 15.5 3.65625 15.5 3.5V3ZM14.75 12.5H1.25C0.8125 12.5 0.5 12.8438 0.5 13.25V13.75C0.5 13.9062 0.59375 14 0.75 14H15.25C15.375 14 15.5 13.9062 15.5 13.75V13.25C15.5 12.8438 15.1562 12.5 14.75 12.5ZM3 5V11H1.875C1.65625 11 1.5 11.1875 1.5 11.375V12H14.5V11.375C14.5 11.1875 14.3125 11 14.125 11H13V5H11V11H9V5H7V11H5V5H3Z" fill="#1A6FEF"/>
</svg>
